<?xml version="1.0" encoding="utf-8"?>
<svg version="1.1" id="Layer_1" xmlns="http://www.w3.org/2000/svg" x="0px" y="0px"
	 viewBox="0 0 300 400" style="enable-background:new 0 0 300 400;" xml:space="preserve">
<style type="text/css">
	.st0{fill:#FFFFFF;stroke:#000000;stroke-width:2.0692;stroke-miterlimit:10;}
	.st1{fill:#4C5DAA;}
	.st2{fill:#FFFFFF;stroke:#010101;stroke-width:2.0692;stroke-miterlimit:10;}
	.st3{fill:#F8991E;stroke:#000000;stroke-width:2.0692;stroke-miterlimit:10;}
	.st4{fill:#FFFFFF;stroke:#231F20;stroke-width:2.0692;stroke-miterlimit:10;}
	.st5{fill:none;stroke:#231F20;stroke-width:2.0692;stroke-linecap:round;stroke-miterlimit:10;}
	.st6{fill:#9E9E9E;stroke:#231F20;stroke-width:2.0692;stroke-linecap:round;stroke-miterlimit:10;}
	.st7{fill:#939393;stroke:#231F20;stroke-width:2.0692;stroke-linecap:round;stroke-miterlimit:10;}
	.st8{fill:#A3A3A2;stroke:#231F20;stroke-width:2.0692;stroke-linecap:round;stroke-miterlimit:10;}
	.st9{fill:#4FB848;stroke:#231F20;stroke-width:2.0692;stroke-miterlimit:10;}
	.st10{fill:#8962A9;stroke:#231F20;stroke-width:2.0692;stroke-miterlimit:10;}
	.st11{fill:#010101;}
	.st12{fill:#FFFFFF;stroke:#010101;stroke-width:1.0346;stroke-linecap:round;stroke-linejoin:round;stroke-miterlimit:10;}
</style>
<path id="body" class="st0" d="M66.19,293.93c0.17,5.42,1.54,29.68,20.69,48.28c19.64,19.08,44.62,19.23,58.86,19.31
	c14.7,0.09,44.26,0.26,64.61-22.53c18.06-20.24,17.07-45.35,16.78-50.12c-0.22-3.73-2-27.5-21.15-46.44
	c-22.84-22.58-53.09-21.18-63.92-20.69c-11.58,0.53-41.19,1.87-60.7,25.75C66.29,265.93,65.98,287.14,66.19,293.93z"/>
<g id="buttons">
	<path class="st1" d="M138.68,259.9c-5.42-0.35-10.65,3.92-11.27,9.66c-0.64,6.02,4.03,11.52,9.89,11.96
		c5.09,0.37,9.77-3.17,11.04-7.82C150.03,267.47,145.29,260.32,138.68,259.9z"/>
	<path class="st1" d="M137.76,285.15c-5.42-0.35-10.65,3.92-11.27,9.66c-0.64,6.02,4.03,11.52,9.89,11.96
		c5.09,0.37,9.77-3.17,11.04-7.82C149.11,292.72,144.37,285.57,137.76,285.15z"/>
	<path class="st1" d="M138.68,310.21c-5.42-0.35-10.65,3.92-11.27,9.66c-0.64,6.02,4.03,11.52,9.89,11.96
		c5.09,0.37,9.77-3.17,11.04-7.82C150.03,317.78,145.29,310.63,138.68,310.21z"/>
</g>
<path id="left-stick" class="st2" d="M79.27,256.8c1.53,1.3,3.71,1.39,5.21,0.31c1.74-1.26,2.22-3.85,0.92-5.82
	c-11.24-13.08-22.48-26.16-33.72-39.24c-1.41-1.22-3.57-1.74-4.9-0.61c-1.8,1.51-1.39,3.47-0.36,5.13
	C54.02,225.71,65.59,240.17,79.27,256.8z"/>
<path id="right-stick" class="st0" d="M205.21,252.85c-0.89,1.7-0.37,3.76,1.07,4.75c1.63,1.12,4.07,0.64,5.21-1.23
	c12.47-10.42,24.93-20.85,37.4-31.27c0.99-1.48,0.64-3.47-0.73-4.5c-1.29-0.96-3.15-0.83-4.33,0.36
	C230.96,231.59,218.09,242.22,205.21,252.85z"/>
<g id="mittens">
	<path class="st3" d="M45.96,232.08c2.57,0.08,5.93-1.82,12.65-7.53c4.72-4.01,7.32-5.33,8.51-7.87c1.09-2.35,0.92-4.73,0.86-7.07
		c-0.06-2.64-0.56-4.65-1.55-8.68c-0.69-2.79-1.35-4.9-2.19-7.03c-1.57-3.99-2.64-5.14-3.9-5.73c-0.39-0.18-1.51-0.68-2.89-0.37
		c-0.23,0.05-1.64,0.38-2.51,1.64c-0.49,0.71-0.62,1.43-0.8,2.53c-0.25,1.48-0.06,2.1-0.57,2.64c-0.54,0.57-1.38,0.58-1.49,0.57
		c-2.11-0.01-2.76-4-5.17-6.55c-3.77-4-10.57-3.12-11.5-2.99c-8.54,1.21-12.19,9.35-12.42,9.89c-2.04,4.77-1.15,9.17-0.69,11.27
		c1.25,5.74,4.61,9.27,11.27,16.09C39.45,228.94,42.47,231.97,45.96,232.08z"/>
	<path class="st3" d="M246.59,240.57c-2.54-0.44-5.44-2.99-10.85-9.94c-3.8-4.88-6.09-6.71-6.73-9.44c-0.59-2.52,0.07-4.82,0.59-7.1
		c0.6-2.57,1.49-4.44,3.29-8.18c1.24-2.59,2.31-4.52,3.58-6.44c2.35-3.58,3.63-4.5,4.99-4.81c0.42-0.1,1.62-0.35,2.91,0.22
		c0.22,0.1,1.53,0.71,2.13,2.11c0.34,0.79,0.31,1.53,0.27,2.64c-0.05,1.5-0.37,2.06,0.02,2.71c0.41,0.66,1.23,0.84,1.35,0.87
		c2.07,0.42,3.52-3.35,6.4-5.36c4.51-3.14,10.98-0.91,11.86-0.59c8.12,2.93,10.03,11.64,10.14,12.21c1.03,5.09-0.74,9.21-1.62,11.17
		c-2.39,5.36-6.4,8.14-14.3,13.47C253.6,238.82,250.03,241.17,246.59,240.57z"/>
</g>
<g id="head">
	<path class="st4" d="M88.63,220.49c-12.54-16.22-11.25-36-10.95-40.6c1.5-23.03,15.24-43.94,34.95-54.72
		c29.65-16.22,66.57-6.13,85.81,15.88c4.2,4.8,15.6,19.38,15.81,40.68c0.02,2.56-0.05,23.09-13.49,39.09
		C175.36,251.05,113.09,252.14,88.63,220.49z"/>
	<path class="st5" d="M117.46,200.12c2.64,2.2,11.54,9.05,24.83,9.43c14.72,0.42,24.68-7.39,27.13-9.43"/>
	<path class="st6" d="M109.18,158.05c5.66-0.22,11.05,4.6,10.81,10.35c-0.21,5.08-4.75,9.02-9.66,9.43
		c-4.95,0.41-9.99-2.8-11.04-7.59C98.03,164.45,103.03,158.29,109.18,158.05z"/>
	<path class="st7" d="M143.44,177.82c3.64-0.07,7.71,2.55,7.93,6.48c0.22,4-3.66,7.21-7.47,7.32
		c-4.23,0.12-8.37-3.6-7.97-7.66C136.28,180.4,139.98,177.89,143.44,177.82z"/>
	<path class="st8" d="M177.74,160.68c5.66-0.22,11.05,4.6,10.81,10.35c-0.21,5.08-4.75,9.02-9.66,9.43
		c-4.95,0.41-9.99-2.8-11.04-7.59C166.59,167.09,171.59,160.92,177.74,160.68z"/>
</g>
<g id="scarf">
	<path class="st9" d="M88.72,222.65c0.41,2.48,0.72,6.18,0,10.58c-0.77,4.71-2.42,8.31-3.68,10.58c13.79,4.01,32.64,7.95,55.18,8.28
		c27.71,0.4,50.4-4.82,65.76-9.66c-1.25-2.12-2.76-5.23-3.68-9.2c-1.21-5.21-0.89-9.64-0.46-12.42
		c-10.81,5.01-34.33,10.27-58.86,11.04C116.2,232.69,99.98,227.43,88.72,222.65z"/>
	<path class="st9" d="M182.3,298.75c4.01-0.95,8.64-1.8,13.79-2.3c4.35-0.42,8.36-0.53,11.96-0.46c-0.56-7.17-2.05-16.81-5.98-27.59
		c-3.46-9.48-7.77-17.02-11.5-22.53c-5.82,1.07-11.65,2.15-17.47,3.22c0.82,3.23,1.95,7.76,3.22,13.22
		c1.86,8.04,2.93,12.64,3.91,18.51C180.96,285.26,181.81,291.36,182.3,298.75z"/>
</g>
<path class="st10" d="M116.52,123.28c12.08,1.37,25.21,3.39,39.19,6.34c15.7,3.32,29.99,7.28,42.74,11.43
	c3.97-32.96,6.34-57.5,6.53-64.89c0.05-1.89,0.03-5.46-2.3-8.15c-2.26-2.61-5.55-3.12-7.13-3.37c-25.73-4.13-38.59-6.21-47.21-7.05
	c-0.79-0.08-2.63-0.26-4.9,0.31c-2.69,0.67-4.64,2.06-5.82,3.07c-3.56,9.32-7.08,19.01-10.5,29.05
	C123.23,101.39,119.71,112.5,116.52,123.28z"/>
<g id="snowflakes">
	<path class="st11" d="M49.66,156.73l-0.73-0.17l0.69-0.45c0.22-0.14,0.29-0.44,0.14-0.66c-0.14-0.22-0.44-0.29-0.66-0.14
		l-1.47,0.95l-0.87-0.2l0.69-0.45c0.22-0.15,0.28-0.44,0.13-0.66c-0.15-0.22-0.44-0.28-0.66-0.13l-1.44,0.95l-0.8-0.19l1.29-0.88
		c0.1-0.07,0.17-0.18,0.2-0.29c0,0,0-0.01,0-0.01c0.06-0.26-0.1-0.5-0.36-0.57l-1.43-0.34l0.63-0.39l1.66,0.38
		c0.26,0.06,0.52-0.1,0.57-0.36c0.06-0.26-0.1-0.52-0.36-0.57l-0.73-0.17l0.77-0.48l1.66,0.38c0.26,0.06,0.52-0.1,0.57-0.36
		c0.06-0.26-0.1-0.52-0.36-0.57l-0.73-0.17l0.62-0.38c0.22-0.14,0.29-0.44,0.15-0.66c-0.14-0.22-0.44-0.29-0.66-0.15l-0.64,0.4
		l0.18-0.82c0.06-0.26-0.1-0.52-0.36-0.58c0,0-0.01,0-0.01,0c-0.26-0.06-0.52,0.12-0.57,0.38l-0.37,1.72l-0.75,0.47l0.16-0.81
		c0.05-0.26-0.12-0.51-0.37-0.56c-0.26-0.05-0.51,0.12-0.56,0.37l-0.34,1.69l-0.66,0.41l0.31-1.4c0.05-0.13,0.04-0.27-0.03-0.4
		c-0.13-0.23-0.43-0.32-0.66-0.19l-1.44,0.79l0.2-0.87l1.5-0.87c0.23-0.13,0.31-0.43,0.18-0.65c-0.13-0.23-0.44-0.31-0.66-0.17
		l-0.72,0.41l0.2-0.87l1.51-0.9c0.23-0.14,0.31-0.43,0.17-0.66c-0.14-0.23-0.44-0.3-0.67-0.17l-0.72,0.42l0.16-0.7
		c0.06-0.26-0.1-0.52-0.36-0.57s-0.52,0.1-0.57,0.36l-0.15,0.66l-0.38-0.63c-0.14-0.22-0.43-0.29-0.65-0.15
		c-0.22,0.14-0.3,0.43-0.16,0.66l0.89,1.44l-0.2,0.86l-0.38-0.63c-0.14-0.22-0.43-0.29-0.65-0.15c-0.22,0.14-0.3,0.43-0.16,0.66
		l0.89,1.44l-0.19,0.81l-0.8-1.26c-0.14-0.22-0.44-0.28-0.66-0.14c-0.13,0.08-0.2,0.22-0.21,0.36l-0.36,1.35l-0.39-0.61l0.39-1.66
		c0.06-0.26-0.1-0.52-0.36-0.57s-0.52,0.1-0.57,0.36l-0.17,0.73l-0.48-0.77l0.39-1.66c0.06-0.26-0.1-0.52-0.36-0.57
		s-0.52,0.1-0.57,0.36l-0.17,0.73l-0.37-0.61c-0.14-0.22-0.43-0.29-0.65-0.15c-0.22,0.14-0.29,0.44-0.15,0.66l0.39,0.62l-0.8-0.17
		c-0.26-0.06-0.52,0.12-0.57,0.38c-0.06,0.26,0.1,0.51,0.36,0.57c0,0,0.01,0,0.01,0l1.72,0.36l0.47,0.75l-0.81-0.16
		c-0.26-0.05-0.51,0.12-0.56,0.37c-0.05,0.25,0.11,0.5,0.36,0.56c0,0,0.01,0,0.01,0l1.69,0.34l0.45,0.72l-1.45-0.3
		c-0.13-0.03-0.29-0.03-0.42,0.05c-0.23,0.13-0.3,0.43-0.17,0.66l0.01,0.01c0.01,0.01,0.02,0.03,0.02,0.04l0.75,1.27l-0.83-0.19
		l-0.87-1.49c-0.13-0.23-0.43-0.31-0.66-0.17c-0.23,0.13-0.31,0.43-0.17,0.66l0.42,0.71l-0.87-0.2l-0.9-1.5
		c-0.14-0.23-0.43-0.3-0.66-0.16c-0.23,0.14-0.3,0.43-0.16,0.66l0.43,0.71l-0.7-0.16c-0.26-0.06-0.52,0.1-0.57,0.36
		s0.1,0.52,0.36,0.57l0.66,0.15l-0.63,0.39c-0.22,0.14-0.29,0.44-0.15,0.66c0.07,0.11,0.18,0.19,0.3,0.21
		c0.12,0.03,0.25,0.01,0.36-0.06l1.44-0.9l0.86,0.2l-0.63,0.39c-0.22,0.14-0.29,0.44-0.15,0.66c0.07,0.11,0.18,0.19,0.3,0.21
		c0.12,0.03,0.25,0.01,0.36-0.06l1.44-0.9l0.82,0.19l-1.26,0.82c-0.22,0.14-0.28,0.44-0.14,0.66c0.07,0.1,0.17,0.17,0.28,0.2
		c0,0,0,0,0.01,0l1.48,0.38l-0.72,0.45l-1.67-0.44c-0.26-0.07-0.52,0.09-0.58,0.34c-0.07,0.26,0.09,0.52,0.34,0.58l0.8,0.21
		l-0.77,0.48l-1.69-0.41c0,0-0.01,0-0.01,0c-0.25-0.06-0.51,0.08-0.57,0.34c-0.06,0.26,0.1,0.5,0.35,0.57l0.81,0.2l-0.61,0.38
		c-0.22,0.14-0.29,0.44-0.15,0.66c0.07,0.11,0.18,0.19,0.3,0.21c0.12,0.03,0.24,0.01,0.35-0.06l0.53-0.34l-0.17,0.73
		c-0.06,0.26,0.1,0.52,0.36,0.57c0.26,0.06,0.52-0.1,0.57-0.36l0.38-1.66l0.77-0.48l-0.17,0.73c-0.06,0.26,0.1,0.52,0.36,0.57
		c0.26,0.06,0.52-0.1,0.57-0.36l0.38-1.66l0.74-0.45l-0.29,1.42c-0.04,0.13-0.03,0.29,0.05,0.41c0.07,0.11,0.18,0.2,0.3,0.23
		c0,0,0,0,0,0c0,0,0,0,0,0c0.14,0.03,0.29-0.03,0.39-0.1l1.19-0.74l-0.18,0.76l-1.43,0.9c-0.22,0.14-0.29,0.44-0.15,0.66
		c0.07,0.11,0.18,0.19,0.3,0.21c0.12,0.03,0.24,0.01,0.35-0.06l0.62-0.39l-0.2,0.86l-1.43,0.9c-0.22,0.14-0.29,0.44-0.15,0.66
		c0.07,0.11,0.18,0.19,0.3,0.21c0.12,0.03,0.24,0.01,0.35-0.06l0.62-0.39l-0.16,0.69c-0.06,0.26,0.1,0.52,0.36,0.57
		c0.26,0.06,0.52-0.1,0.57-0.36l0.17-0.73l0.46,0.7c0.07,0.11,0.18,0.18,0.3,0.21c0.12,0.03,0.26,0.01,0.37-0.06
		c0.22-0.14,0.28-0.44,0.13-0.66l-0.96-1.47l0.2-0.87l0.46,0.69c0.07,0.11,0.18,0.18,0.3,0.2c0.12,0.03,0.26,0.01,0.38-0.07
		c0.22-0.15,0.27-0.45,0.13-0.67l-0.96-1.44l0.19-0.81l0.84,1.27c0.09,0.13,0.19,0.24,0.35,0.27c0,0,0,0,0,0
		c0.26,0.06,0.51-0.11,0.58-0.36l0.36-1.53l0.46,0.74l-0.44,1.67c-0.07,0.26,0.09,0.52,0.34,0.58c0,0,0.01,0,0.01,0
		c0.25,0.06,0.51-0.09,0.57-0.35l0.21-0.8l0.47,0.75l-0.42,1.7c-0.06,0.26,0.09,0.52,0.35,0.58c0,0,0.01,0,0.01,0
		c0.25,0.06,0.51-0.09,0.57-0.34l0.2-0.81l0.38,0.61c0.07,0.11,0.18,0.19,0.3,0.21c0.12,0.03,0.25,0.01,0.36-0.06
		c0.22-0.14,0.29-0.44,0.15-0.66l-0.34-0.54l0.73,0.17c0.26,0.06,0.52-0.1,0.57-0.36c0.06-0.26-0.1-0.52-0.36-0.57l-1.66-0.39
		l-0.48-0.77l0.73,0.17c0.26,0.06,0.52-0.1,0.57-0.36c0.06-0.26-0.1-0.52-0.36-0.57l-1.66-0.39l-0.43-0.7l1.45,0.27
		c0.12,0.02,0.26,0,0.35-0.06c0.23-0.14,0.3-0.43,0.16-0.66l-0.75-1.23l0.75,0.17l0.9,1.44c0.07,0.11,0.18,0.19,0.3,0.21
		c0.12,0.03,0.25,0.01,0.36-0.06c0.22-0.14,0.29-0.44,0.15-0.66L46.58,157l0.86,0.2l0.9,1.44c0.07,0.11,0.18,0.19,0.3,0.21
		c0.12,0.03,0.25,0.01,0.36-0.06c0.22-0.14,0.29-0.44,0.15-0.66l-0.39-0.63l0.69,0.16c0.26,0.06,0.52-0.1,0.57-0.36
		C50.08,157.04,49.92,156.79,49.66,156.73z M39.05,153.21l0.77,1.24l-1.45-0.34l-0.69-1.17L39.05,153.21z M38.36,156.11l-1.31-0.34
		l1.12-0.73l1.39,0.32L38.36,156.11z M39.68,157.53l-1.09,0.67l0.26-1.28l1.13-0.71L39.68,157.53L39.68,157.53z M40.54,153.81
		l-0.73-1.18l0.32-1.24l0.72,1.11L40.54,153.81L40.54,153.81z M41.78,152.73l1.26-0.69l-0.3,1.33l-1.29,0.8L41.78,152.73z
		 M41.4,158.88l-0.79-1.15l0.34-1.45l0.77,1.23L41.4,158.88z M42.61,157.1l-0.74-1.19l1.33,0.31l0.68,1.12L42.61,157.1z
		 M43.41,155.28l-1.38-0.32l1.23-0.77l1.3,0.31L43.41,155.28z"/>
	<path class="st11" d="M253.16,127.8l-0.73-0.07l0.07-0.7c0.03-0.27-0.17-0.5-0.43-0.53c-0.27-0.03-0.5,0.17-0.53,0.43l-0.07,0.7
		l-0.58-0.06l0.11-1.09c0.03-0.27-0.17-0.5-0.43-0.53c-0.27-0.03-0.5,0.17-0.53,0.43l-0.11,1.09l-4.46-0.44
		c-0.01-0.05-0.03-0.11-0.05-0.16l3.49-2.86l0.69,0.85c0.08,0.1,0.2,0.16,0.33,0.17s0.25-0.02,0.35-0.11
		c0.21-0.17,0.24-0.47,0.07-0.68l-0.69-0.85l0.45-0.37l0.45,0.55c0.08,0.1,0.2,0.16,0.33,0.17c0.12,0.01,0.25-0.02,0.35-0.11
		c0.21-0.17,0.24-0.47,0.07-0.68l-0.45-0.55l0.55-0.45c0.21-0.17,0.24-0.47,0.07-0.68c-0.17-0.21-0.47-0.24-0.68-0.07l-0.55,0.45
		l-0.45-0.55c-0.17-0.21-0.47-0.24-0.68-0.07c-0.21,0.17-0.24,0.47-0.07,0.68l0.45,0.55l-0.45,0.37l-0.69-0.85
		c-0.17-0.21-0.47-0.24-0.68-0.07c-0.21,0.17-0.24,0.47-0.07,0.68l0.69,0.85l-3.53,2.88c-0.04-0.02-0.07-0.04-0.13-0.06l0.45-4.53
		l1.11,0.11c0.27,0.03,0.5-0.17,0.53-0.43c0.03-0.27-0.17-0.5-0.43-0.53l-1.11-0.11l0.06-0.58l0.73,0.07
		c0.27,0.03,0.5-0.17,0.53-0.43c0.03-0.27-0.17-0.5-0.43-0.53l-0.73-0.07l0.07-0.7c0.03-0.27-0.17-0.5-0.43-0.53
		c-0.27-0.03-0.5,0.17-0.53,0.43l-0.07,0.7l-0.68-0.07c-0.27-0.03-0.5,0.17-0.53,0.43c-0.03,0.27,0.17,0.5,0.43,0.53l0.68,0.07
		l-0.06,0.58l-1.07-0.11c-0.27-0.03-0.5,0.17-0.53,0.43s0.17,0.5,0.43,0.53l1.07,0.11l-0.45,4.55c0,0.01-0.06,0.02-0.1,0.04
		l-2.89-3.54l0.85-0.69c0.21-0.17,0.24-0.47,0.07-0.68c-0.17-0.21-0.47-0.24-0.68-0.07l-0.85,0.69l-0.37-0.45l0.55-0.45
		c0.21-0.17,0.24-0.47,0.07-0.68c-0.17-0.21-0.47-0.24-0.68-0.07l-0.55,0.45l-0.45-0.55c-0.17-0.21-0.47-0.24-0.68-0.07
		c-0.21,0.17-0.24,0.47-0.07,0.68l0.45,0.55l-0.55,0.45c-0.21,0.17-0.24,0.47-0.07,0.68c0.08,0.1,0.2,0.16,0.33,0.17
		c0.12,0.01,0.25-0.02,0.35-0.11l0.55-0.45l0.37,0.45l-0.85,0.69c-0.21,0.17-0.24,0.47-0.07,0.68c0.08,0.1,0.2,0.16,0.33,0.17
		c0.12,0.01,0.25-0.02,0.35-0.11l0.85-0.69l2.9,3.54c-0.02,0.03-0.04,0.07-0.06,0.1l-4.57-0.46l0.11-1.09
		c0.03-0.27-0.17-0.5-0.43-0.53c-0.27-0.03-0.5,0.17-0.53,0.43l-0.11,1.09l-0.58-0.06l0.07-0.7c0.03-0.27-0.17-0.5-0.43-0.53
		c-0.27-0.03-0.5,0.17-0.53,0.43l-0.07,0.7l-0.68-0.07c-0.27-0.03-0.5,0.17-0.53,0.43c-0.03,0.27,0.17,0.5,0.43,0.53l0.68,0.07
		l-0.07,0.7c-0.03,0.27,0.17,0.5,0.43,0.53c0.27,0.03,0.5-0.17,0.53-0.43l0.07-0.7l0.58,0.06l-0.11,1.09
		c-0.03,0.27,0.17,0.5,0.43,0.53c0.27,0.03,0.5-0.17,0.53-0.43l0.11-1.09l4.55,0.45c0.01,0.05,0.02,0.09,0.04,0.13l-3.52,2.88
		l-0.69-0.85c-0.17-0.21-0.47-0.24-0.68-0.07c-0.21,0.17-0.24,0.47-0.07,0.68l0.69,0.85l-0.45,0.37l-0.45-0.55
		c-0.17-0.21-0.47-0.24-0.68-0.07c-0.21,0.17-0.24,0.47-0.07,0.68l0.45,0.55l-0.55,0.45c-0.21,0.17-0.24,0.47-0.07,0.68
		c0.08,0.1,0.2,0.16,0.33,0.17c0.12,0.01,0.25-0.02,0.35-0.11l0.55-0.45l0.45,0.55c0.08,0.1,0.2,0.16,0.33,0.17
		c0.12,0.01,0.25-0.02,0.35-0.11c0.21-0.17,0.24-0.47,0.07-0.68l-0.45-0.55l0.45-0.37l0.69,0.85c0.08,0.1,0.2,0.16,0.33,0.17
		c0.12,0.01,0.25-0.02,0.35-0.11c0.21-0.17,0.24-0.47,0.07-0.68l-0.69-0.85l3.48-2.86c0.05,0.03,0.14,0.06,0.13,0.08l-0.45,4.48
		l-1.07-0.11c-0.27-0.03-0.5,0.17-0.53,0.43s0.17,0.5,0.43,0.53l1.07,0.11l-0.06,0.58l-0.68-0.07c-0.27-0.03-0.5,0.17-0.53,0.43
		c-0.03,0.27,0.17,0.5,0.43,0.53l0.68,0.07l-0.07,0.7c-0.03,0.27,0.17,0.5,0.43,0.53s0.5-0.17,0.53-0.43l0.07-0.7l0.73,0.07
		c0.27,0.03,0.5-0.17,0.53-0.43c0.03-0.27-0.17-0.5-0.43-0.53l-0.73-0.07l0.06-0.58l1.11,0.11c0.27,0.03,0.5-0.17,0.53-0.43
		c0.03-0.27-0.17-0.5-0.43-0.53l-1.11-0.11l0.44-4.46c0.07-0.01,0.13-0.03,0.19-0.05l2.84,3.47l-0.84,0.69
		c-0.21,0.17-0.24,0.47-0.07,0.68c0.08,0.1,0.2,0.16,0.33,0.17c0.12,0.01,0.25-0.02,0.35-0.11l0.85-0.69l0.37,0.45l-0.55,0.45
		c-0.21,0.17-0.24,0.47-0.07,0.68c0.08,0.1,0.2,0.16,0.33,0.17c0.12,0.01,0.25-0.02,0.35-0.11l0.55-0.45l0.45,0.55
		c0.08,0.1,0.2,0.16,0.33,0.17c0.12,0.01,0.25-0.02,0.35-0.11c0.21-0.17,0.24-0.47,0.07-0.68l-0.45-0.55l0.55-0.45
		c0.21-0.17,0.24-0.47,0.07-0.68c-0.17-0.21-0.47-0.24-0.68-0.07l-0.55,0.45l-0.37-0.45l0.85-0.69c0.21-0.17,0.24-0.47,0.07-0.68
		c-0.17-0.21-0.47-0.24-0.68-0.07l-0.85,0.69l-2.84-3.47c0.03-0.05,0.06-0.11,0.09-0.17l4.44,0.44l-0.11,1.09
		c-0.03,0.27,0.17,0.5,0.43,0.53c0.27,0.03,0.5-0.17,0.53-0.43l0.11-1.09l0.58,0.06l-0.07,0.7c-0.03,0.27,0.17,0.5,0.43,0.53
		s0.5-0.17,0.53-0.43l0.07-0.7l0.73,0.07c0.27,0.03,0.5-0.17,0.53-0.43S253.42,127.82,253.16,127.8z"/>
	<path class="st11" d="M276.81,156.78c-0.35-0.18-0.76-0.22-1.14-0.09l0,0c-0.38,0.12-0.69,0.38-0.88,0.73
		c-0.11,0.2-0.16,0.42-0.17,0.65l-1.27,0.4l0.35-0.68c0.13-0.24,0.03-0.55-0.21-0.67c-0.24-0.13-0.55-0.03-0.67,0.21l-0.81,1.56
		l-1.38,0.44l-0.8-0.85l0.7-1.35l1.74-0.55c0.26-0.08,0.41-0.36,0.33-0.63c-0.08-0.26-0.36-0.41-0.63-0.33l-0.79,0.25l0.62-1.19
		c0.21,0.03,0.43,0.01,0.65-0.06c0.38-0.12,0.69-0.38,0.88-0.74c0.38-0.73,0.09-1.64-0.64-2.02c-0.35-0.18-0.76-0.22-1.14-0.1l0,0
		c-0.38,0.12-0.69,0.38-0.88,0.74c-0.18,0.35-0.22,0.76-0.1,1.14c0.07,0.22,0.18,0.42,0.33,0.58l-0.63,1.19l-0.23-0.72
		c-0.08-0.26-0.36-0.41-0.63-0.33s-0.41,0.36-0.33,0.63l0.53,1.68l-0.69,1.32l-1.16-0.09l-0.44-1.41l0.85-1.62
		c0.13-0.24,0.04-0.55-0.21-0.67c-0.24-0.13-0.55-0.03-0.68,0.22l-0.39,0.73l-0.41-1.31c0.51-0.38,0.73-1.03,0.54-1.65
		c-0.25-0.79-1.09-1.23-1.87-0.98c-0.79,0.25-1.23,1.09-0.99,1.88c0.2,0.62,0.8,1.01,1.37,1.05l0.41,1.31l-0.72-0.38
		c-0.24-0.13-0.54-0.03-0.67,0.21c-0.13,0.24-0.04,0.55,0.2,0.68l1.6,0.84l0.42,1.33l-0.95,0.76l-1.25-0.65l-0.55-1.73
		c-0.08-0.26-0.36-0.41-0.63-0.33c-0.26,0.08-0.41,0.36-0.33,0.63l0.24,0.78l-1.17-0.62c0.08-0.61-0.21-1.24-0.78-1.54
		c-0.35-0.18-0.76-0.22-1.14-0.1c-0.38,0.12-0.69,0.38-0.88,0.74c-0.18,0.35-0.22,0.76-0.1,1.14c0.12,0.38,0.38,0.69,0.74,0.88
		c0.35,0.18,0.76,0.22,1.14,0.1c0.22-0.07,0.41-0.18,0.57-0.33l1.2,0.62l-0.73,0.23c-0.26,0.08-0.41,0.36-0.33,0.63
		c0.08,0.26,0.36,0.41,0.63,0.33l1.69-0.53l1.19,0.62l-0.11,1.27l-1.28,0.4l-1.62-0.84c-0.24-0.13-0.55-0.03-0.67,0.21
		c-0.13,0.24-0.03,0.55,0.21,0.67l0.74,0.38l-1.28,0.4c-0.37-0.5-1.03-0.73-1.65-0.54c-0.38,0.12-0.69,0.38-0.88,0.74
		c-0.18,0.35-0.22,0.76-0.1,1.14c0.12,0.38,0.38,0.69,0.74,0.88c0.35,0.18,0.76,0.22,1.14,0.1c0.62-0.19,1.02-0.75,1.05-1.37
		l1.28-0.4l-0.35,0.67c-0.13,0.24-0.03,0.55,0.21,0.67c0.12,0.06,0.26,0.07,0.38,0.03c0.12-0.04,0.23-0.12,0.29-0.25l0.81-1.55
		l1.3-0.41l0.79,1l-0.61,1.18l-1.74,0.55c-0.26,0.08-0.41,0.36-0.33,0.63c0.08,0.26,0.36,0.41,0.63,0.33l0.79-0.25l-0.61,1.18
		c-0.22-0.03-0.45-0.02-0.67,0.05l0,0c-0.38,0.12-0.69,0.38-0.88,0.74c-0.18,0.35-0.22,0.76-0.1,1.14c0.12,0.38,0.38,0.69,0.74,0.88
		c0.35,0.18,0.76,0.22,1.14,0.1c0.38-0.12,0.69-0.38,0.88-0.74c0.18-0.35,0.22-0.76,0.1-1.14c-0.07-0.21-0.19-0.4-0.34-0.56
		l0.61-1.18l0.23,0.72c0.08,0.26,0.36,0.41,0.63,0.33c0.26-0.08,0.41-0.36,0.33-0.63l-0.53-1.67l0.64-1.23l1.24,0.13l0.41,1.31
		l-0.83,1.6c-0.13,0.24-0.03,0.54,0.22,0.67c0.12,0.06,0.26,0.07,0.38,0.03c0.12-0.04,0.22-0.12,0.28-0.24l0.37-0.72l0.4,1.28
		c-0.45,0.35-0.72,1.01-0.52,1.63c0.25,0.79,1.09,1.22,1.88,0.97c0.79-0.25,1.22-1.08,0.97-1.87c-0.2-0.62-0.75-1.02-1.38-1.04
		l-0.41-1.29l0.69,0.35c0.12,0.06,0.26,0.07,0.39,0.03c0.12-0.04,0.23-0.12,0.3-0.25c0.13-0.24,0.02-0.54-0.22-0.67l-1.58-0.81
		l-0.43-1.36l0.92-0.78l1.28,0.66l0.55,1.75c0.08,0.26,0.36,0.41,0.63,0.33s0.41-0.36,0.33-0.63l-0.25-0.8l1.19,0.61
		c-0.03,0.22-0.01,0.44,0.06,0.66c0.12,0.38,0.38,0.69,0.74,0.88c0.35,0.18,0.76,0.22,1.14,0.1c0.38-0.12,0.69-0.38,0.88-0.74
		c0.18-0.35,0.22-0.76,0.1-1.14c-0.12-0.38-0.38-0.69-0.74-0.88c-0.35-0.18-0.76-0.22-1.14-0.1l0,0c-0.22,0.07-0.41,0.18-0.57,0.33
		l-1.17-0.61l0.71-0.22c0.26-0.08,0.41-0.36,0.33-0.63c-0.08-0.26-0.36-0.41-0.63-0.33l-1.66,0.53l-1.33-0.69l0.13-1.17l1.4-0.44
		l1.61,0.84c0.12,0.06,0.26,0.07,0.38,0.03c0.12-0.04,0.23-0.12,0.29-0.25c0.13-0.24,0.03-0.55-0.21-0.67l-0.73-0.38l1.26-0.4
		c0.37,0.49,1.02,0.71,1.64,0.52c0.79-0.25,1.23-1.09,0.98-1.88C277.42,157.27,277.16,156.96,276.81,156.78z M269.77,161.54
		l-1.14,0.97l-1.48-0.15l-0.91-1.15l0.12-1.44l1.11-0.9l1.47,0.12l1,1.06L269.77,161.54z"/>
	<path class="st11" d="M76.93,91.88c-0.13-0.38-0.4-0.68-0.76-0.86l0,0c-0.36-0.18-0.76-0.21-1.14-0.08
		c-0.22,0.07-0.41,0.19-0.57,0.35l-1.19-0.59L74,90.46c0.26-0.09,0.4-0.37,0.31-0.63c-0.09-0.26-0.37-0.4-0.63-0.31l-1.67,0.56
		l-1.3-0.64l0.01-1.17l1.44-0.48l1.63,0.81c0.25,0.12,0.55,0.02,0.67-0.23s0.02-0.55-0.23-0.67l-0.74-0.37l1.27-0.43
		c0.13,0.17,0.3,0.31,0.5,0.41c0.36,0.18,0.76,0.21,1.14,0.08c0.78-0.26,1.2-1.11,0.94-1.9c-0.13-0.38-0.39-0.69-0.75-0.86l0,0
		c-0.36-0.18-0.76-0.21-1.14-0.08c-0.38,0.13-0.69,0.4-0.86,0.75c-0.1,0.21-0.16,0.43-0.16,0.65l-1.27,0.42l0.34-0.68
		c0.12-0.25,0.02-0.55-0.23-0.67s-0.55-0.02-0.67,0.23l-0.78,1.57l-1.42,0.48l-0.77-0.87l0.65-1.32l1.73-0.57
		c0.26-0.09,0.41-0.37,0.32-0.63c-0.09-0.26-0.38-0.41-0.64-0.32l-0.78,0.26l0.61-1.23c0.63,0.08,1.24-0.23,1.53-0.82
		c0.37-0.74,0.07-1.64-0.67-2c-0.74-0.37-1.65-0.07-2.01,0.67c-0.29,0.58-0.13,1.28,0.26,1.7l-0.61,1.23l-0.25-0.77
		c-0.09-0.26-0.37-0.4-0.63-0.31c-0.26,0.09-0.41,0.37-0.32,0.63l0.57,1.72l-0.62,1.25l-1.21-0.11l-0.45-1.33l0.81-1.62
		c0.12-0.25,0.02-0.55-0.23-0.67c-0.25-0.12-0.55-0.02-0.67,0.23l-0.36,0.73l-0.42-1.26c0.48-0.38,0.71-1.04,0.5-1.65
		c-0.13-0.38-0.39-0.68-0.75-0.86c-0.36-0.18-0.76-0.2-1.14-0.08c-0.38,0.13-0.68,0.4-0.86,0.75c-0.18,0.36-0.21,0.76-0.08,1.14
		c0.13,0.38,0.4,0.69,0.75,0.86c0.2,0.1,0.42,0.15,0.64,0.15l0.43,1.28l-0.69-0.34c-0.25-0.12-0.55-0.02-0.67,0.23
		c-0.12,0.25-0.02,0.55,0.23,0.67l1.58,0.79l0.43,1.27l-0.96,0.84l-1.2-0.6l-0.58-1.73c-0.09-0.26-0.37-0.4-0.63-0.31
		c-0.26,0.09-0.4,0.37-0.31,0.63l0.26,0.79L62,85.1c0.08-0.62-0.23-1.24-0.82-1.53c-0.36-0.18-0.76-0.21-1.14-0.08
		c-0.38,0.13-0.69,0.4-0.86,0.75c-0.18,0.36-0.21,0.76-0.08,1.14c0.13,0.38,0.4,0.69,0.75,0.86c0.58,0.29,1.26,0.16,1.7-0.26
		l1.2,0.6l-0.71,0.24c-0.26,0.09-0.4,0.37-0.31,0.63c0.04,0.13,0.14,0.23,0.25,0.29c0.11,0.06,0.25,0.07,0.38,0.03l1.66-0.56
		l1.22,0.61l-0.12,1.27l-1.26,0.42l-1.63-0.81c-0.25-0.12-0.55-0.02-0.67,0.23c-0.12,0.25-0.02,0.55,0.23,0.67l0.74,0.37l-1.26,0.42
		c-0.14-0.18-0.31-0.32-0.52-0.43l0,0c-0.36-0.18-0.76-0.21-1.14-0.08c-0.38,0.13-0.69,0.4-0.86,0.75
		c-0.18,0.36-0.21,0.76-0.08,1.14c0.13,0.38,0.39,0.69,0.75,0.86c0.36,0.18,0.76,0.21,1.14,0.08c0.38-0.13,0.69-0.4,0.86-0.75
		c0.1-0.2,0.14-0.42,0.14-0.64l1.26-0.43l-0.34,0.68c-0.12,0.25-0.02,0.55,0.23,0.67c0.25,0.12,0.55,0.02,0.67-0.23l0.78-1.57
		l1.32-0.44l0.81,0.95l-0.61,1.23l-1.71,0.58c-0.26,0.09-0.4,0.37-0.31,0.63c0.04,0.13,0.14,0.23,0.25,0.29
		c0.11,0.06,0.24,0.07,0.37,0.02l0.76-0.26l-0.6,1.2c-0.57-0.05-1.22,0.23-1.51,0.82c-0.37,0.74-0.06,1.64,0.68,2
		c0.74,0.37,1.63,0.07,2-0.67c0.29-0.58,0.17-1.26-0.28-1.71l0.6-1.21l0.26,0.73c0.04,0.13,0.14,0.23,0.26,0.29
		c0.11,0.06,0.25,0.07,0.38,0.03c0.26-0.09,0.39-0.38,0.31-0.64l-0.57-1.68l0.64-1.28l1.2,0.07l0.46,1.36l-0.82,1.64
		c-0.12,0.25-0.02,0.55,0.23,0.67c0.25,0.12,0.55,0.02,0.67-0.23l0.37-0.75l0.44,1.27c-0.17,0.14-0.31,0.31-0.41,0.51
		c-0.18,0.36-0.2,0.77-0.08,1.14c0.13,0.38,0.4,0.69,0.75,0.86c0.36,0.18,0.76,0.21,1.14,0.08c0.38-0.13,0.69-0.39,0.86-0.75
		c0.18-0.36,0.21-0.76,0.08-1.14c-0.13-0.38-0.39-0.69-0.75-0.86l0,0c-0.2-0.1-0.42-0.15-0.64-0.15l-0.42-1.25l0.67,0.33
		c0.25,0.12,0.55,0.02,0.67-0.23c0.12-0.25,0.02-0.55-0.23-0.67l-1.56-0.78l-0.48-1.42l0.9-0.75l1.31,0.65l0.58,1.72
		c0.04,0.13,0.14,0.23,0.25,0.29c0.11,0.06,0.25,0.07,0.38,0.03c0.26-0.09,0.4-0.37,0.31-0.63l-0.26-0.78l1.19,0.59
		c-0.07,0.61,0.24,1.22,0.82,1.51c0.74,0.37,1.64,0.06,2.01-0.68C77.04,92.66,77.06,92.26,76.93,91.88z M68.57,90.43l-1.5-0.09
		l-0.96-1.14l0.14-1.46l1.08-0.95l1.42,0.13l0.97,1.1l-0.02,1.46L68.57,90.43z"/>
	<path class="st11" d="M276.76,88.27c-0.18-0.26-0.49-0.41-0.8-0.38c-0.16,0.01-0.31,0.07-0.43,0.15c-0.16,0.11-0.27,0.26-0.33,0.42
		l-0.84,0.07l-2.14-0.86l0.69-0.48l0.5,0.33c0.08,0.05,0.17,0.07,0.25,0.07c0.12-0.01,0.23-0.07,0.3-0.17
		c0.12-0.18,0.07-0.43-0.11-0.55l-0.24-0.16l0.55-0.38l0.36,0.07c0.03,0.01,0.07,0.01,0.1,0.01c0.13-0.01,0.25-0.09,0.32-0.21
		l0.39-0.73c0.07-0.13,0.06-0.29-0.02-0.41c-0.08-0.12-0.23-0.19-0.38-0.17L274.1,85c-0.17,0.02-0.31,0.15-0.34,0.32l-0.07,0.37
		l-0.53,0.36l-0.05-0.22c-0.05-0.21-0.26-0.35-0.47-0.31c-0.21,0.05-0.35,0.26-0.31,0.47l0.12,0.55l-0.7,0.48l-0.04-2.27l0.4-0.86
		c0.02,0,0.04,0,0.05,0c0.15-0.01,0.3-0.07,0.43-0.15c0.4-0.28,0.51-0.83,0.23-1.24c-0.18-0.26-0.49-0.41-0.8-0.38
		c-0.16,0.01-0.3,0.07-0.43,0.15c-0.4,0.28-0.51,0.83-0.23,1.24c0.01,0.02,0.02,0.03,0.03,0.05l-0.41,0.86l-1.76,1.37l-0.07-0.82
		l0.53-0.26c0.2-0.1,0.28-0.33,0.19-0.53c-0.1-0.2-0.34-0.28-0.54-0.18l-0.25,0.12l-0.05-0.67l0.23-0.26
		c0.11-0.13,0.13-0.32,0.04-0.47l-0.43-0.7c-0.08-0.13-0.22-0.2-0.37-0.19c-0.15,0.01-0.28,0.11-0.33,0.24l-0.32,0.76
		c-0.07,0.16-0.03,0.34,0.1,0.46l0.3,0.26l0.05,0.63l-0.22-0.08c-0.21-0.07-0.43,0.05-0.5,0.25c-0.07,0.21,0.04,0.43,0.25,0.5
		l0.54,0.18l0.07,0.84l-2.01-1.12l-0.57-0.75c0.07-0.14,0.11-0.3,0.09-0.47c-0.04-0.49-0.47-0.86-0.96-0.82
		c-0.49,0.04-0.85,0.47-0.82,0.96s0.47,0.86,0.96,0.82c0.03,0,0.06-0.01,0.09-0.01l0.57,0.75l0.32,2.22l-0.74-0.35l0.04-0.6
		c0.02-0.22-0.15-0.41-0.37-0.42c-0.22-0.02-0.41,0.15-0.42,0.37l-0.02,0.29l-0.6-0.28l-0.12-0.34c-0.06-0.16-0.21-0.27-0.39-0.26
		l-0.82,0.03c-0.15,0.01-0.28,0.09-0.34,0.23c-0.06,0.13-0.05,0.29,0.04,0.41l0.5,0.66c0.08,0.11,0.21,0.17,0.35,0.16
		c0.03,0,0.07-0.01,0.1-0.02l0.36-0.13l0.58,0.27l-0.17,0.15c-0.16,0.15-0.18,0.4-0.03,0.56c0.09,0.1,0.21,0.14,0.33,0.13
		c0.08-0.01,0.17-0.04,0.23-0.1l0.41-0.37l0.75,0.35l-2,1.2l-0.86,0.07c-0.09-0.15-0.22-0.28-0.39-0.37
		c-0.14-0.07-0.3-0.1-0.45-0.08c-0.32,0.03-0.6,0.22-0.73,0.51c-0.1,0.21-0.11,0.46-0.03,0.68c0.08,0.22,0.24,0.4,0.46,0.51
		c0.14,0.07,0.3,0.1,0.45,0.08c0.32-0.03,0.6-0.22,0.73-0.51c0-0.01,0.01-0.02,0.01-0.03l1-0.08l2.04,0.82l-0.68,0.47l-0.5-0.33
		c-0.18-0.12-0.43-0.07-0.55,0.11c-0.12,0.18-0.07,0.43,0.11,0.55l0.24,0.16l-0.55,0.38l-0.36-0.07c-0.17-0.03-0.34,0.05-0.42,0.2
		l-0.39,0.73c-0.07,0.13-0.06,0.29,0.02,0.41c0.08,0.12,0.22,0.18,0.36,0.17c0.01,0,0.01,0,0.02,0l0.82-0.1
		c0.17-0.02,0.31-0.15,0.34-0.32l0.07-0.37l0.53-0.36l0.05,0.22c0.04,0.2,0.22,0.33,0.42,0.31c0.02,0,0.03,0,0.05-0.01
		c0.21-0.05,0.35-0.26,0.31-0.47l-0.12-0.55l0.67-0.46l0.04,2.26l-0.37,0.9c-0.01,0-0.01,0-0.02,0c-0.16,0.01-0.3,0.07-0.43,0.15
		c-0.4,0.28-0.51,0.83-0.23,1.24c0.18,0.26,0.49,0.41,0.8,0.38c0.16-0.01,0.31-0.07,0.43-0.15c0.2-0.14,0.33-0.34,0.37-0.57
		c0.04-0.23-0.01-0.47-0.14-0.67c-0.02-0.03-0.04-0.05-0.06-0.07l0.36-0.89l1.79-1.41l0.07,0.84l-0.54,0.27
		c-0.2,0.1-0.27,0.33-0.18,0.53c0.07,0.15,0.23,0.23,0.39,0.22c0.05,0,0.09-0.02,0.13-0.04l0.27-0.13l0.05,0.65l-0.24,0.29
		c-0.11,0.13-0.12,0.32-0.03,0.47l0.44,0.7c0.08,0.13,0.22,0.2,0.37,0.19l0,0c0.15-0.01,0.28-0.11,0.33-0.24l0.32-0.76
		c0.07-0.16,0.01-0.34-0.12-0.45l-0.28-0.23l-0.05-0.65l0.21,0.06c0.21,0.07,0.44-0.05,0.5-0.25c0.07-0.21-0.05-0.43-0.26-0.5
		l-0.52-0.17l-0.07-0.82l1.97,1.08l0.69,0.87c-0.07,0.14-0.1,0.3-0.09,0.46c0.04,0.49,0.47,0.87,0.96,0.83c0,0,0,0,0,0
		c0.49-0.04,0.85-0.48,0.81-0.97c-0.04-0.49-0.47-0.86-0.96-0.82c-0.03,0-0.07,0.01-0.1,0.01l-0.68-0.85l-0.32-2.23l0.76,0.36
		l-0.04,0.6c-0.02,0.22,0.15,0.41,0.37,0.42c0.02,0,0.04,0,0.06,0c0.19-0.02,0.35-0.17,0.36-0.37l0.02-0.29l0.6,0.28l0.12,0.34
		c0.06,0.16,0.21,0.27,0.39,0.26l0.82-0.03c0.01,0,0.01,0,0.02,0c0.14-0.01,0.27-0.1,0.33-0.23c0.06-0.13,0.05-0.29-0.04-0.41
		l-0.5-0.66c-0.1-0.14-0.29-0.19-0.45-0.13l-0.36,0.13l-0.58-0.27l0.17-0.15c0.16-0.15,0.18-0.4,0.03-0.56
		c-0.15-0.16-0.4-0.18-0.56-0.03l-0.41,0.37l-0.76-0.36l1.88-1.13l0.95-0.08c0.01,0.01,0.01,0.02,0.02,0.03
		c0.18,0.26,0.49,0.41,0.8,0.38h0c0.16-0.01,0.31-0.07,0.43-0.15c0.2-0.14,0.33-0.34,0.37-0.57
		C276.94,88.7,276.89,88.47,276.76,88.27z M270.93,85.48l0.03,2.09l-1.51,1.04l-0.15-1.86L270.93,85.48z M266.68,85.82l1.84,1.02
		l0.15,1.84l-1.7-0.81L266.68,85.82z M264.85,89.67l1.79-1.08l1.69,0.8l-1.53,1.06L264.85,89.67z M267.26,93.18l-0.04-2.07
		l1.55-1.07l0.15,1.84L267.26,93.18z M271.52,92.84l-1.8-0.99l-0.15-1.86l1.65,0.78L271.52,92.84z M271.58,90.06l-1.67-0.79
		l1.52-1.05l1.93,0.78L271.58,90.06z"/>
	<path class="st11" d="M51.18,119.04l-1.55,0.12l0.65-0.77c0.19-0.22,0.16-0.55-0.06-0.74c-0.22-0.19-0.55-0.16-0.74,0.06
		l-1.25,1.47l-3.06-0.82l1.17-3.06l0.03-0.04l1.75-0.14c0.29-0.02,0.51-0.28,0.48-0.57c-0.02-0.29-0.28-0.51-0.57-0.48l-0.7,0.06
		l0.87-1.03c0.19-0.22,0.16-0.55-0.06-0.74c-0.22-0.19-0.57-0.16-0.76,0.06l-1.04,1.21l-0.08-1.04c-0.02-0.29-0.28-0.51-0.57-0.48
		s-0.51,0.28-0.48,0.57l0.16,1.98l-2.73,1.58l-1.32-2.98l1.21-1.42c0.19-0.22,0.16-0.55-0.06-0.74c-0.22-0.19-0.57-0.16-0.75,0.06
		l-0.6,0.7l-0.12-1.51c-0.02-0.29-0.28-0.51-0.57-0.48c-0.29,0.02-0.51,0.28-0.48,0.57l0.11,1.44l-0.61-0.53
		c-0.22-0.19-0.55-0.16-0.74,0.06c-0.19,0.22-0.16,0.55,0.06,0.74l1.41,1.2l-0.83,3.17l-3.03-1.15l-0.15-1.87
		c-0.02-0.29-0.28-0.51-0.57-0.48s-0.51,0.28-0.48,0.57l0.07,0.88l-1.13-0.98c-0.22-0.19-0.55-0.16-0.74,0.06
		c-0.19,0.22-0.16,0.55,0.06,0.74l1.13,0.96l-0.85,0.07c-0.29,0.02-0.51,0.28-0.48,0.57c0.02,0.29,0.28,0.51,0.57,0.48l1.87-0.15
		l1.62,2.81l-2.93,1.31l-1.43-1.22c-0.22-0.19-0.55-0.16-0.74,0.06c-0.19,0.22-0.16,0.55,0.06,0.74l0.71,0.61l-1.57,0.12
		c-0.29,0.02-0.51,0.28-0.48,0.57c0.02,0.29,0.28,0.51,0.57,0.48l1.48-0.12l-0.52,0.61c-0.19,0.22-0.16,0.55,0.06,0.74
		c0.11,0.09,0.25,0.14,0.38,0.12c0.13-0.01,0.27-0.07,0.36-0.18l1.21-1.41l3.12,0.84l-1.13,2.95l-1.91,0.15
		c-0.29,0.02-0.51,0.28-0.48,0.57c0.02,0.29,0.28,0.51,0.57,0.48l0.97-0.08l-1.03,1.21c-0.19,0.22-0.16,0.55,0.06,0.74
		c0.11,0.09,0.25,0.14,0.38,0.12c0.13-0.01,0.25-0.07,0.35-0.18l0.93-1.1l0.06,0.77c0.02,0.29,0.28,0.51,0.57,0.48
		s0.51-0.28,0.48-0.57l-0.14-1.8l2.82-1.62l1.31,2.91l-1.2,1.4c-0.19,0.22-0.16,0.55,0.06,0.74c0.11,0.09,0.25,0.14,0.38,0.12
		c0.13-0.01,0.25-0.07,0.35-0.18l0.52-0.62l0.12,1.46c0.02,0.29,0.28,0.51,0.57,0.48c0.29-0.02,0.51-0.28,0.48-0.57l-0.12-1.53
		l0.71,0.59c0.11,0.09,0.26,0.13,0.39,0.12c0.13-0.01,0.27-0.07,0.36-0.18c0.19-0.22,0.16-0.55-0.06-0.74l-1.4-1.2l0.81-3.07
		l3.02,1.16l0.14,1.8c0.02,0.29,0.28,0.51,0.57,0.48s0.51-0.28,0.48-0.57l-0.06-0.78l1.1,0.93c0.11,0.09,0.26,0.13,0.39,0.12
		c0.13-0.01,0.27-0.07,0.36-0.18c0.19-0.22,0.16-0.55-0.06-0.74l-1.18-1.01l0.95-0.08c0.29-0.02,0.51-0.28,0.48-0.57
		s-0.28-0.51-0.57-0.48l-1.91,0.15l-1.58-2.74l2.95-1.32l0.04,0l1.36,1.16c0.11,0.09,0.25,0.14,0.38,0.12
		c0.13-0.01,0.27-0.07,0.36-0.18c0.19-0.22,0.16-0.55-0.06-0.74l-0.56-0.48l1.36-0.11c0.29-0.02,0.51-0.28,0.48-0.57
		C51.73,119.23,51.47,119.01,51.18,119.04z M45.49,123.85l-2.91-1.11l-0.81,3.01l-1.27-2.84l-1.28,0.74l-1.42,0.82l1.11-2.91
		l-3.01-0.81l2.84-1.27l-1.56-2.7l2.92,1.11l0.79-3.06l1.28,2.89l2.7-1.56l-1.11,2.91l3.01,0.81l-2.84,1.27L45.49,123.85z"/>
	<path class="st11" d="M58.45,44.59h-0.99l0.46-0.46c0.13-0.13,0.13-0.35,0-0.48c-0.13-0.13-0.35-0.13-0.48,0l-0.88,0.88l-1.92-0.68
		l0.9-1.9l0.02-0.02h1.13c0.19,0,0.34-0.15,0.34-0.34c0-0.19-0.15-0.34-0.34-0.34h-0.45l0.61-0.61c0.13-0.13,0.13-0.35,0-0.48
		c-0.13-0.13-0.35-0.13-0.49,0l-0.73,0.72v-0.67c0-0.19-0.15-0.34-0.34-0.34c-0.19,0-0.34,0.15-0.34,0.34v1.27l-1.82,0.87
		l-0.69-1.97l0.85-0.85c0.13-0.13,0.13-0.35,0-0.48c-0.13-0.13-0.35-0.13-0.48,0l-0.42,0.41v-0.97c0-0.19-0.15-0.34-0.34-0.34
		c-0.19,0-0.34,0.15-0.34,0.34v0.93l-0.36-0.37c-0.13-0.13-0.34-0.13-0.47,0c-0.13,0.13-0.13,0.35,0,0.48l0.84,0.84l-0.69,1.98
		l-1.88-0.89v-1.2c0-0.19-0.15-0.34-0.34-0.34s-0.34,0.15-0.34,0.34v0.57l-0.67-0.68c-0.13-0.13-0.34-0.13-0.47,0
		c-0.13,0.13-0.13,0.35,0,0.48L48,41.3h-0.55c-0.19,0-0.34,0.15-0.34,0.34c0,0.19,0.15,0.34,0.34,0.34h1.2l0.89,1.87l-1.94,0.69
		l-0.85-0.85c-0.13-0.13-0.35-0.13-0.48,0c-0.13,0.13-0.13,0.35,0,0.48l0.42,0.42H45.7c-0.19,0-0.34,0.15-0.34,0.34
		s0.15,0.34,0.34,0.34h0.95l-0.37,0.37c-0.13,0.13-0.13,0.35,0,0.48c0.07,0.07,0.15,0.1,0.24,0.1s0.17-0.03,0.24-0.1l0.84-0.84
		l1.95,0.69l-0.87,1.83h-1.23c-0.19,0-0.34,0.15-0.34,0.34s0.15,0.34,0.34,0.34h0.62l-0.72,0.72c-0.13,0.13-0.13,0.35,0,0.48
		c0.07,0.07,0.15,0.1,0.24,0.1s0.17-0.03,0.23-0.1l0.65-0.66v0.49c0,0.19,0.15,0.34,0.34,0.34s0.34-0.15,0.34-0.34v-1.16l1.88-0.89
		l0.69,1.92l-0.83,0.84c-0.13,0.13-0.13,0.35,0,0.48c0.07,0.07,0.15,0.1,0.24,0.1c0.09,0,0.17-0.03,0.23-0.1l0.36-0.37v0.94
		c0,0.19,0.15,0.34,0.34,0.34s0.34-0.15,0.34-0.34v-0.99l0.42,0.41c0.07,0.07,0.16,0.1,0.24,0.1c0.09,0,0.17-0.03,0.24-0.1
		c0.13-0.13,0.13-0.35,0-0.48l-0.84-0.84l0.68-1.92l1.87,0.89v1.16c0,0.19,0.15,0.34,0.34,0.34c0.19,0,0.34-0.15,0.34-0.34V49
		l0.66,0.65c0.07,0.07,0.16,0.1,0.24,0.1s0.17-0.03,0.24-0.1c0.13-0.13,0.13-0.35,0-0.48l-0.7-0.7h0.61c0.19,0,0.34-0.15,0.34-0.34
		s-0.15-0.34-0.34-0.34h-1.23l-0.87-1.83l1.95-0.69h0.03l0.81,0.81c0.07,0.07,0.15,0.1,0.24,0.1s0.17-0.03,0.24-0.1
		c0.13-0.13,0.13-0.35,0-0.48l-0.33-0.33h0.87c0.19,0,0.34-0.15,0.34-0.34S58.64,44.59,58.45,44.59z M54.57,47.38l-1.8-0.86
		L52.1,48.4l-0.67-1.88l-0.86,0.41l-0.95,0.45l0.86-1.8l-1.88-0.67l1.88-0.67l-0.86-1.8l1.81,0.86l0.66-1.91l0.67,1.91l1.8-0.86
		l-0.86,1.8l1.88,0.67l-1.88,0.67L54.57,47.38z"/>
	<path class="st11" d="M262.97,47.8h-0.99l0.46-0.46c0.13-0.13,0.13-0.35,0-0.48c-0.13-0.13-0.35-0.13-0.48,0l-0.88,0.88l-1.92-0.68
		l0.9-1.9l0.02-0.02h1.13c0.19,0,0.34-0.15,0.34-0.34s-0.15-0.34-0.34-0.34h-0.45l0.61-0.61c0.13-0.13,0.13-0.35,0-0.48
		c-0.13-0.13-0.35-0.13-0.49,0l-0.73,0.72v-0.67c0-0.19-0.15-0.34-0.34-0.34c-0.19,0-0.34,0.15-0.34,0.34v1.27l-1.82,0.87
		l-0.69-1.97l0.85-0.85c0.13-0.13,0.13-0.35,0-0.48c-0.13-0.13-0.35-0.13-0.48,0l-0.42,0.41v-0.97c0-0.19-0.15-0.34-0.34-0.34
		c-0.19,0-0.34,0.15-0.34,0.34v0.93l-0.36-0.37c-0.13-0.13-0.34-0.13-0.47,0c-0.13,0.13-0.13,0.35,0,0.48l0.84,0.84l-0.69,1.98
		l-1.88-0.89v-1.2c0-0.19-0.15-0.34-0.34-0.34S253,43.29,253,43.48v0.57l-0.67-0.68c-0.13-0.13-0.34-0.13-0.47,0
		c-0.13,0.13-0.13,0.35,0,0.48l0.67,0.67h-0.55c-0.19,0-0.34,0.15-0.34,0.34s0.15,0.34,0.34,0.34h1.2l0.89,1.87l-1.94,0.69
		l-0.85-0.85c-0.13-0.13-0.35-0.13-0.48,0c-0.13,0.13-0.13,0.35,0,0.48l0.42,0.42h-1.01c-0.19,0-0.34,0.15-0.34,0.34
		s0.15,0.34,0.34,0.34h0.95l-0.37,0.37c-0.13,0.13-0.13,0.35,0,0.48c0.07,0.07,0.15,0.1,0.24,0.1c0.09,0,0.17-0.03,0.24-0.1
		l0.84-0.84l1.95,0.69L253.2,51h-1.23c-0.19,0-0.34,0.15-0.34,0.34c0,0.19,0.15,0.34,0.34,0.34h0.62l-0.72,0.72
		c-0.13,0.13-0.13,0.35,0,0.48c0.07,0.07,0.15,0.1,0.24,0.1s0.17-0.03,0.23-0.1l0.65-0.66v0.49c0,0.19,0.15,0.34,0.34,0.34
		s0.34-0.15,0.34-0.34v-1.16l1.88-0.89l0.69,1.92l-0.83,0.84c-0.13,0.13-0.13,0.35,0,0.48c0.07,0.07,0.15,0.1,0.24,0.1
		c0.09,0,0.17-0.03,0.23-0.1l0.36-0.37v0.94c0,0.19,0.15,0.34,0.34,0.34c0.19,0,0.34-0.15,0.34-0.34v-0.99l0.42,0.41
		c0.07,0.07,0.16,0.1,0.24,0.1c0.09,0,0.17-0.03,0.24-0.1c0.13-0.13,0.13-0.35,0-0.48l-0.84-0.84l0.68-1.92l1.87,0.89v1.16
		c0,0.19,0.15,0.34,0.34,0.34s0.34-0.15,0.34-0.34v-0.5l0.66,0.65c0.07,0.07,0.16,0.1,0.24,0.1c0.09,0,0.17-0.03,0.24-0.1
		c0.13-0.13,0.13-0.35,0-0.48l-0.7-0.7h0.61c0.19,0,0.34-0.15,0.34-0.34c0-0.19-0.15-0.34-0.34-0.34h-1.23l-0.87-1.83l1.95-0.69
		h0.03l0.81,0.81c0.07,0.07,0.15,0.1,0.24,0.1c0.09,0,0.17-0.03,0.24-0.1c0.13-0.13,0.13-0.35,0-0.48l-0.33-0.33h0.87
		c0.19,0,0.34-0.15,0.34-0.34C263.31,47.95,263.16,47.8,262.97,47.8z M259.09,50.59l-1.8-0.86l-0.67,1.88l-0.67-1.88l-0.86,0.41
		l-0.95,0.45l0.86-1.8l-1.88-0.67l1.88-0.67l-0.86-1.8l1.81,0.86l0.66-1.91l0.67,1.91l1.8-0.86l-0.86,1.8l1.88,0.67l-1.88,0.67
		L259.09,50.59z"/>
	<path class="st11" d="M103.96,64.89h-0.99l0.46-0.46c0.13-0.13,0.13-0.35,0-0.48c-0.13-0.13-0.35-0.13-0.48,0l-0.88,0.88
		l-1.92-0.68l0.9-1.9l0.02-0.02h1.13c0.19,0,0.34-0.15,0.34-0.34c0-0.19-0.15-0.34-0.34-0.34h-0.45l0.61-0.61
		c0.13-0.13,0.13-0.35,0-0.48c-0.13-0.13-0.35-0.13-0.49,0l-0.73,0.72v-0.67c0-0.19-0.15-0.34-0.34-0.34
		c-0.19,0-0.34,0.15-0.34,0.34v1.27l-1.82,0.87l-0.69-1.97l0.85-0.85c0.13-0.13,0.13-0.35,0-0.48c-0.13-0.13-0.35-0.13-0.48,0
		l-0.42,0.41v-0.97c0-0.19-0.15-0.34-0.34-0.34c-0.19,0-0.34,0.15-0.34,0.34v0.93l-0.36-0.37c-0.13-0.13-0.34-0.13-0.47,0
		c-0.13,0.13-0.13,0.35,0,0.48l0.84,0.84l-0.69,1.98l-1.88-0.89v-1.2c0-0.19-0.15-0.34-0.34-0.34c-0.19,0-0.34,0.15-0.34,0.34v0.57
		l-0.67-0.68c-0.13-0.13-0.34-0.13-0.47,0c-0.13,0.13-0.13,0.35,0,0.48l0.67,0.67h-0.55c-0.19,0-0.34,0.15-0.34,0.34
		c0,0.19,0.15,0.34,0.34,0.34h1.2l0.89,1.87l-1.94,0.69l-0.85-0.85c-0.13-0.13-0.35-0.13-0.48,0c-0.13,0.13-0.13,0.35,0,0.48
		l0.42,0.42H91.2c-0.19,0-0.34,0.15-0.34,0.34c0,0.19,0.15,0.34,0.34,0.34h0.95l-0.37,0.37c-0.13,0.13-0.13,0.35,0,0.48
		c0.07,0.07,0.15,0.1,0.24,0.1c0.09,0,0.17-0.03,0.24-0.1l0.84-0.84l1.95,0.69l-0.87,1.83h-1.23c-0.19,0-0.34,0.15-0.34,0.34
		s0.15,0.34,0.34,0.34h0.62l-0.72,0.72c-0.13,0.13-0.13,0.35,0,0.48c0.07,0.07,0.15,0.1,0.24,0.1s0.17-0.03,0.23-0.1l0.65-0.66v0.49
		c0,0.19,0.15,0.34,0.34,0.34c0.19,0,0.34-0.15,0.34-0.34v-1.16l1.88-0.89l0.69,1.92l-0.83,0.84c-0.13,0.13-0.13,0.35,0,0.48
		c0.07,0.07,0.15,0.1,0.24,0.1c0.09,0,0.17-0.03,0.23-0.1l0.36-0.37v0.94c0,0.19,0.15,0.34,0.34,0.34c0.19,0,0.34-0.15,0.34-0.34
		v-0.99l0.42,0.41c0.07,0.07,0.16,0.1,0.24,0.1c0.09,0,0.17-0.03,0.24-0.1c0.13-0.13,0.13-0.35,0-0.48l-0.84-0.84l0.68-1.92
		l1.87,0.89v1.16c0,0.19,0.15,0.34,0.34,0.34s0.34-0.15,0.34-0.34v-0.5l0.66,0.65c0.07,0.07,0.16,0.1,0.24,0.1
		c0.09,0,0.17-0.03,0.24-0.1c0.13-0.13,0.13-0.35,0-0.48l-0.7-0.7h0.61c0.19,0,0.34-0.15,0.34-0.34s-0.15-0.34-0.34-0.34h-1.23
		l-0.87-1.83l1.95-0.69h0.03l0.81,0.81c0.07,0.07,0.15,0.1,0.24,0.1c0.09,0,0.17-0.03,0.24-0.1c0.13-0.13,0.13-0.35,0-0.48
		l-0.33-0.33h0.87c0.19,0,0.34-0.15,0.34-0.34C104.29,65.04,104.14,64.89,103.96,64.89z M100.07,67.68l-1.8-0.86L97.6,68.7
		l-0.67-1.88l-0.86,0.41l-0.95,0.45l0.86-1.8l-1.88-0.67l1.88-0.67l-0.86-1.8l1.81,0.86l0.66-1.91l0.67,1.91l1.8-0.86l-0.86,1.8
		l1.88,0.67l-1.88,0.67L100.07,67.68z"/>
	<polygon class="st12" points="92.68,118.89 94.09,117.98 95.53,118.89 95.45,117.17 97,116.37 95.53,115.59 95.53,113.87 
		94.09,114.71 92.68,113.87 92.68,115.56 91.41,116.38 92.9,117.32 	"/>
</g>
</svg>
